<svg viewBox="0 0 85 110" fill="none" xmlns="http://www.w3.org/2000/svg"><rect width="85" height="110" rx="2" fill="white"/><rect x="10" y="10" width="65" height="8" rx="1" fill="#D1D5DB"/><rect x="10" y="22" width="30" height="4" rx="1" fill="#E5E7EB"/><rect x="10" y="29" width="65" height="2" rx="1" fill="#9CA3AF"/><rect x="10" y="35" width="40" height="5" rx="1" fill="#D1D5DB"/><rect x="10" y="44" width="65" height="2" rx="1" fill="#F3F4F6"/><rect x="10" y="48" width="50" height="2" rx="1" fill="#F3F4F6"/><rect x="10" y="56" width="40" height="5" rx="1" fill="#D1D5DB"/><rect x="10" y="65" width="65" height="2" rx="1" fill="#F3F4F6"/><rect x="10" y="69" width="50" height="2" rx="1" fill="#F3F4F6"/><rect x="10" y="77" width="40" height="5" rx="1" fill="#D1D5DB"/><rect x="10" y="86" width="20" height="4" rx="1" fill="#E5E7EB"/><rect x="34" y="86" width="20" height="4" rx="1" fill="#E5E7EB"/></svg>