<svg viewBox="0 0 85 110" fill="none" xmlns="http://www.w3.org/2000/svg"><rect width="85" height="110" rx="2" fill="white"/><rect width="28" height="110" fill="#F3F4F6"/><rect x="6" y="10" width="16" height="5" rx="1" fill="#D1D5DB"/><rect x="6" y="18" width="10" height="3" rx="1" fill="#E5E7EB"/><rect x="6" y="28" width="16" height="2" rx="1" fill="#D1D5DB"/><rect x="6" y="32" width="16" height="2" rx="1" fill="#E5E7EB"/><rect x="6" y="42" width="16" height="2" rx="1" fill="#D1D5DB"/><rect x="6" y="46" width="16" height="2" rx="1" fill="#E5E7EB"/><rect x="34" y="10" width="45" height="5" rx="1" fill="#D1D5DB"/><rect x="34" y="19" width="45" height="2" rx="1" fill="#E5E7EB"/><rect x="34" y="23" width="45" height="2" rx="1" fill="#E5E7EB"/><rect x="34" y="31" width="45" height="5" rx="1" fill="#D1D5DB"/><rect x="34" y="40" width="45" height="2" rx="1" fill="#E5E7EB"/><rect x="34" y="44" width="45" height="2" rx="1" fill="#E5E7EB"/></svg>